/* XPM */
static char * man_xpm[] = {
"80 80 426 2",
"  	c #FFFFFF",
". 	c #FFFFFF",
"+ 	c #E8E8E8",
"@ 	c #E9E9E9",
"# 	c #D9D9D9",
"$ 	c #727272",
"% 	c #242424",
"& 	c #000000",
"* 	c #414141",
"= 	c #F6F6F6",
"- 	c #FEFEFE",
"; 	c #8F8F8F",
"> 	c #0C0C0C",
", 	c #1D160A",
"' 	c #A18651",
") 	c #847458",
"! 	c #959595",
"~ 	c #4E4024",
"{ 	c #C3A363",
"] 	c #9B814D",
"^ 	c #806A3F",
"/ 	c #E1BC73",
"( 	c #FBD281",
"_ 	c #F7D186",
": 	c #CCCCCC",
"< 	c #B3955A",
"[ 	c #FEF8EF",
"} 	c #656565",
"| 	c #CCAA68",
"1 	c #FCD381",
"2 	c #FAD181",
"3 	c #DCB871",
"4 	c #DCB870",
"5 	c #F0DEC1",
"6 	c #474747",
"7 	c #CBA967",
"8 	c #FAD180",
"9 	c #DFBB72",
"0 	c #D9B56F",
"a 	c #ECC679",
"b 	c #F4CC7D",
"c 	c #FBDEAC",
"d 	c #B0B0B0",
"e 	c #866F42",
"f 	c #E4BF75",
"g 	c #DBB872",
"h 	c #F7CF80",
"i 	c #FAD281",
"j 	c #8B806F",
"k 	c #F3D6A3",
"l 	c #62543B",
"m 	c #EAC478",
"n 	c #8E7E63",
"o 	c #E1C082",
"p 	c #B7985C",
"q 	c #F5D087",
"r 	c #E0E0E0",
"s 	c #4F473A",
"t 	c #F1C97C",
"u 	c #FBD792",
"v 	c #BDBDBD",
"w 	c #483E2A",
"x 	c #F4CB7D",
"y 	c #EEC479",
"z 	c #FBD68F",
"A 	c #CAA968",
"B 	c #FBD181",
"C 	c #CD8F77",
"D 	c #7D412E",
"E 	c #E8BF75",
"F 	c #FBD384",
"G 	c #D2C1A7",
"H 	c #F2C283",
"I 	c #DA9089",
"J 	c #93534A",
"K 	c #A5774A",
"L 	c #FBD58D",
"M 	c #EDBA83",
"N 	c #E5AB83",
"O 	c #CDA265",
"P 	c #DAB06D",
"Q 	c #FADDAB",
"R 	c #FBD283",
"S 	c #FBD282",
"T 	c #FBD794",
"U 	c #FEFAF5",
"V 	c #FBD58C",
"W 	c #F7CE82",
"X 	c #FAD385",
"Y 	c #FDFAF4",
"Z 	c #FFFFFE",
"` 	c #F3C77C",
" .	c #E7B876",
"..	c #FBDDAA",
"+.	c #F2CA87",
"@.	c #DAA56E",
"#.	c #DDAA70",
"$.	c #EBBD78",
"%.	c #F5CB7E",
"&.	c #FAD692",
"*.	c #FEBB75",
"=.	c #FFB562",
"-.	c #FFAC44",
";.	c #FFAB3E",
">.	c #FFAD43",
",.	c #FEB554",
"'.	c #FDC168",
").	c #FBCC79",
"!.	c #FCE0B1",
"~.	c #FFFCFA",
"{.	c #FEC280",
"].	c #F1BE73",
"^.	c #F9CF80",
"/.	c #EEC17A",
"(.	c #FCE6C1",
"_.	c #FECB9E",
":.	c #FFAB3F",
"<.	c #FFAD44",
"[.	c #FFB35D",
"}.	c #FEB054",
"|.	c #FEB76B",
"1.	c #FDDABD",
"2.	c #FFC288",
"3.	c #FCC670",
"4.	c #F3CC8D",
"5.	c #FCEFDA",
"6.	c #FFEEE1",
"7.	c #FEAF52",
"8.	c #FEC999",
"9.	c #FED3AE",
"0.	c #FEAF51",
"a.	c #FEFEFD",
"b.	c #FED5B4",
"c.	c #FFAE4C",
"d.	c #FECCA1",
"e.	c #FDD6B4",
"f.	c #FFD5B2",
"g.	c #FFAC42",
"h.	c #FDDEC5",
"i.	c #FEEBDD",
"j.	c #FEAD46",
"k.	c #FFC48D",
"l.	c #FFAF4F",
"m.	c #FEB35F",
"n.	c #FFCA9B",
"o.	c #FFBA74",
"p.	c #FECDA3",
"q.	c #FEAD47",
"r.	c #FDEBDD",
"s.	c #FFFCF9",
"t.	c #FEAD48",
"u.	c #FEC897",
"v.	c #FFD5B3",
"w.	c #FFAE49",
"x.	c #FDB053",
"y.	c #FFE3CE",
"z.	c #FFF7F0",
"A.	c #FFAC41",
"B.	c #FFAF4E",
"C.	c #FDC086",
"D.	c #FFFAF7",
"E.	c #FFC38B",
"F.	c #FEAF4C",
"G.	c #FEF5EE",
"H.	c #FCBD7B",
"I.	c #FEC591",
"J.	c #FFD8B9",
"K.	c #FEAF50",
"L.	c #FFB566",
"M.	c #FEECDE",
"N.	c #FDBC78",
"O.	c #FEAD49",
"P.	c #FFE3CD",
"Q.	c #FFE0C8",
"R.	c #FFFEFD",
"S.	c #FFAE48",
"T.	c #FFC48E",
"U.	c #FEDFC7",
"V.	c #FEB564",
"W.	c #FDB970",
"X.	c #FDB154",
"Y.	c #FDB157",
"Z.	c #FFBA76",
"`.	c #FEC185",
" +	c #FFB563",
".+	c #FFBE7D",
"++	c #FFD9BB",
"@+	c #FEAE47",
"#+	c #FDC898",
"$+	c #FEB259",
"%+	c #FFB971",
"&+	c #FED8BA",
"*+	c #FFBA73",
"=+	c #FDEBDC",
"-+	c #FEDCC1",
";+	c #FFC692",
">+	c #FFE7D6",
",+	c #FFEDE0",
"'+	c #FDC187",
")+	c #FEAE49",
"!+	c #FDB25B",
"~+	c #FFAB3D",
"{+	c #FFC38D",
"]+	c #FFAE46",
"^+	c #FFD4B1",
"/+	c #FFDABC",
"(+	c #FFF8F2",
"_+	c #FFB662",
":+	c #FFCB9E",
"<+	c #FDB361",
"[+	c #EEA03B",
"}+	c #DE9538",
"|+	c #C98734",
"1+	c #B1762F",
"2+	c #8A623A",
"3+	c #FDB965",
"4+	c #FEB452",
"5+	c #FCC37C",
"6+	c #FEFAF4",
"7+	c #EDA349",
"8+	c #DD9438",
"9+	c #C98735",
"0+	c #B17839",
"a+	c #966636",
"b+	c #704B26",
"c+	c #13151F",
"d+	c #000C1E",
"e+	c #252A33",
"f+	c #A3A4A6",
"g+	c #FBD489",
"h+	c #FADCA8",
"i+	c #6F665D",
"j+	c #041122",
"k+	c #1A2535",
"l+	c #192434",
"m+	c #4F5156",
"n+	c #D0D1D2",
"o+	c #FDF3E4",
"p+	c #FBD383",
"q+	c #FCE6C3",
"r+	c #46494F",
"s+	c #030F21",
"t+	c #010E1F",
"u+	c #010D1F",
"v+	c #30353E",
"w+	c #FCDCA4",
"x+	c #171F2C",
"y+	c #182232",
"z+	c #081425",
"A+	c #061223",
"B+	c #0D1828",
"C+	c #3D4046",
"D+	c #FCE4BD",
"E+	c #FBD48A",
"F+	c #000B1E",
"G+	c #141F2F",
"H+	c #0A1627",
"I+	c #152030",
"J+	c #3E4148",
"K+	c #D9D9DA",
"L+	c #FEF7EC",
"M+	c #FAD795",
"N+	c #FBD58B",
"O+	c #FCE3BA",
"P+	c #0F1A2A",
"Q+	c #111C2C",
"R+	c #0B1627",
"S+	c #031021",
"T+	c #222731",
"U+	c #737578",
"V+	c #FAFBFB",
"W+	c #FCEEDA",
"X+	c #B7B8B9",
"Y+	c #071424",
"Z+	c #141F2E",
"`+	c #071324",
" @	c #0E1929",
".@	c #56585C",
"+@	c #C4C5C6",
"@@	c #B2B3B4",
"#@	c #182333",
"$@	c #162131",
"%@	c #5A5C60",
"&@	c #66686C",
"*@	c #121D2D",
"=@	c #505257",
"-@	c #494B51",
";@	c #131E2E",
">@	c #020E20",
",@	c #151D2A",
"'@	c #3F4249",
")@	c #051223",
"!@	c #BABABC",
"~@	c #FEFFFF",
"{@	c #787A7F",
"]@	c #585A5F",
"^@	c #00081C",
"/@	c #5D5F63",
"(@	c #141E2E",
"_@	c #0A1626",
":@	c #ABACAD",
"<@	c #5B5D62",
"[@	c #071221",
"}@	c #CDCDCE",
"|@	c #212732",
"1@	c #041021",
"2@	c #575A60",
"3@	c #A9AAAC",
"4@	c #6E6F72",
"5@	c #151D29",
"6@	c #B8B9BA",
"7@	c #4E5156",
"8@	c #F3F3F3",
"9@	c #AEAFB1",
"0@	c #3D4148",
"a@	c #E6E6E8",
"b@	c #4D5055",
"c@	c #BEBEBF",
"d@	c #2D3139",
"e@	c #FDFDFD",
"f@	c #000A1D",
"g@	c #858688",
"h@	c #696B6E",
"i@	c #3F434A",
"j@	c #232933",
"k@	c #EFF0F0",
"l@	c #7B7C7F",
"m@	c #43454B",
"n@	c #717276",
"o@	c #77787C",
"p@	c #3B3F46",
"q@	c #7C7D80",
"r@	c #5E6065",
"s@	c #1A202C",
"t@	c #8E8F91",
"u@	c #A8A9AB",
"v@	c #87888B",
"w@	c #F7F8F8",
"x@	c #7D7E81",
"y@	c #1E242F",
"z@	c #000D1F",
"A@	c #373B43",
"B@	c #A2A3A5",
"C@	c #ECECED",
"D@	c #F8F8F9",
"E@	c #A0A1A3",
"F@	c #363A41",
"G@	c #40444A",
"H@	c #3F4248",
"I@	c #8D8E91",
"J@	c #43464C",
"K@	c #232832",
"L@	c #848588",
"M@	c #E4E4E5",
"N@	c #808184",
"O@	c #222832",
"P@	c #8D807F",
"Q@	c #2C3039",
"R@	c #2D313B",
"S@	c #FBFCFC",
"T@	c #E5E6E7",
"U@	c #C8C2C1",
"V@	c #5F3C39",
"W@	c #52211D",
"X@	c #32161D",
"Y@	c #0F1826",
"Z@	c #8B8C8E",
"`@	c #DADBDC",
" #	c #D3D3D4",
".#	c #E7E4E4",
"+#	c #654341",
"@#	c #4F201D",
"##	c #110E1E",
"$#	c #141B27",
"%#	c #848587",
"&#	c #E5E6E6",
"*#	c #F9F9F9",
"=#	c #D3CDCD",
"-#	c #53221F",
";#	c #3F1A1D",
">#	c #707175",
",#	c #505358",
"'#	c #64666B",
")#	c #A09493",
"!#	c #A6A7A8",
"~#	c #582D2A",
"{#	c #8F7F7E",
"]#	c #8E7E7D",
"^#	c #19202C",
"/#	c #1A212D",
"(#	c #EDEBEB",
"_#	c #796361",
":#	c #B1A8A8",
"<#	c #CFC9C9",
"[#	c #664543",
"}#	c #6E5351",
"|#	c #66686B",
"1#	c #24121D",
"2#	c #745E5E",
"3#	c #53231F",
"4#	c #5A322F",
"5#	c #582E2B",
"6#	c #582B27",
"7#	c #B3B3B5",
"8#	c #21121E",
"9#	c #451C1D",
"0#	c #562926",
"a#	c #765C5B",
"b#	c #A39796",
"c#	c #572925",
"d#	c #918383",
"e#	c #542420",
"f#	c #654442",
"g#	c #5E3936",
"h#	c #6F5452",
"i#	c #928382",
"j#	c #E3E0E0",
"k#	c #C9C3C2",
"l#	c #52201C",
"m#	c #715755",
"n#	c #603D3A",
"o#	c #857271",
"p#	c #DCD8D8",
"q#	c #5E3835",
"r#	c #F7F6F6",
"s#	c #8B7978",
"    . .     .       .     . .     .       .     . .     . .     .       .     . .     .       .     . .     . .     .       .     . .     .       .     . .     ",
"    .       .       .     .       .       .       .     .       .       .     . .     .       .       .     .       .       .       .     .       .       .     ",
". .     .       .     . .     . .     .       .     . .     .       .     + @     . .     .       .     . .     .       .     . .     . .     .       .     . . ",
".       .       .       .     .       .       .     .       .       # $ % & & % * =       .       .       .     .       .       .     .       .       .       . ",
"    . .     .       .     . .     .       .     . .     . .     - ; > & & & & , ' )   .       .     . .     . .     .       .     . .     .       .     . .     ",
"                                                                ! & ~ { ] ^ ' / ( _                                                                             ",
". .     .       .     . .     . .     .       .     . .     . : & & < ( ( ( ( ( ( ( [     .       .     . .     .       .     . .     . .     .       .     . . ",
"                                                              } & & | ( ( 1 ( 2 3 4 5                                                                           ",
"    . .     .       .     . .     .       .     . .     . .   6 & & 7 8 9 0 a b 8 ( c .       .     . .     . .     .       .     . .     .       .     . .     ",
"                                                              d e f ( ( ( g h ( i j k                                                                           ",
". .     .       .     . .     . .     .       .     . .     .   l m ( ( ( n o ( ( p q     .       .     . .     .       .     . .     . .     .       .     . . ",
"    .       .       .     .       .       .       .     .       r s | ( ( t 2 ( ( ( u .       .       .     .       .       .       .     .       .       .     ",
"    . .     .       .     . .     .       .     . .     . .     . v w h ( ( ( x y ( z .       .     . .     . .     .       .     . .     .       .     . .     ",
". .     .       .     . .     . .     .       .     . .     .       v A ( ( B C D E F     .       .     . .     .       .     . .     . .     .       .     . . ",
".       .       .       .     .       .       .     . .     .       . G ( ( H I J K L     .       .     . .     .       .       .     .       .       .       . ",
"    . .     .       .     . .     .       .     . .     . .     .       ( ( M N O P Q .       .     . .     . .     .     R (     . .     .       .     . .     ",
"    .       .       .     .       .       .       .     .       .       ( ( ( S ( T   .       .       .     .       U V W B ( X S Y .     .       .       .     ",
". .     .       .     . .     . .     .       .     . .     .       .   ( ( (     Z .     .       .     . .     .     ` 8  .8 ( L     . .     .       .     . . ",
"                                                                        ( ( ( ..                                      +.@.#.$.%.( &.                            ",
"    . .     .       .     . .     .       .     . .     . .   *.=.-.;.>.,.'.).!..     .       .     . .     . .     ~.{.].^. ./.( (..     .       .     . .     ",
"                                                          _.:.;.;.;.;.;.;.;.;.<.[.}.|.1.                            2.;.<.3.( 4.5.                              ",
". .     .       .     . .     . .     .       .     . 6.7.;.;.;.;.;.;.;.;.;.;.;.;.;.;.;.8..       .     . .     . 9.;.;.;.0.  a..     . .     .       .     . . ",
"                                                    b.c.;.;.;.;.;.;.;.;.;.;.;.;.;.;.;.;.;.d.                    e.:.;.;.-.                                      ",
"    . .     .       .     . .     .       .     . f.:.;.;.;.;.;.;.;.;.;.;.;.;.;.;.;.;.;.;.g.h..     . .     . i.j.;.;.;.    .     . .     .       .     . .     ",
".       .       .       .     .       .       Z k.;.;.;.;.;.;.;.;.;.;.;.;.;.;.;.;.;.;.;.;.;.l.    .       .   m.;.;.;.2..       .     .       .       .       . ",
". .     .       .     . .     . .     .       n.;.;.;.;.;.;.o.p.;.;.;.;.;.;.;.;.;.;.;.;.;.;.;.q.r..     . s.7.;.;.;.t.  .     . .     . .     .       .     . . ",
"    . .     .       .     . .     .       . u.;.;.;.;.;.[.v.    w.;.;.;.;.;.;.;.;.;.;.;.;.;.;.;.:.  . .   x.;.;.;.;.y.      .     . .     .       .     . .     ",
"    .       .       .     . .     .       z.A.;.;.;.B.C.D..     E.;.;.;.;.;.;.;.;.;.;.;.;.;.;.;.;.F.G.. H.;.;.;.;.I..       .     . .     .       .       .     ",
". .     .       .     . .     . .     .     ;.;.;.;.J..     .     ;.;.;.;.;.;.;.;.;.;.;.;.;.;.;.;.;.K.  :.;.;.;.L.      .     . .     . .     .       .     . . ",
".       .       .       .     .       .     ;.;.;.;.M..     .     ;.;.;.;.;.;.;.;.;.;.;.N.O.;.;.;.;.;.;.;.;.;.A.P.      .       .     .       .       .       . ",
"    . .     .       .     . .     .       Q.;.;.;.:.    . .     R.S.;.;.;.;.;.;.;.;.;.;.7.  ;.;.;.;.;.;.;.;.;.T.    .       .     . .     .       .     . .     ",
"                                          U.;.;.;.F.              V.;.;.;.;.;.;.;.;.;.;.W.  d.j.;.;.;.;.;.;.}.                                                  ",
". .     .       .     . .     . .     .     ;.;.;.X.. .     .     Y.;.;.;.;.;.;.;.;.;.;.Z..     `. +A.q..+++    .       .     . .     . .     .       .     . . ",
"                                            A.;.;.@+              #+;.;.;.;.;.;.;.;.;.;.$+                                                                      ",
"    . .     .       .     . .     .       . %+;.;.;.    . .     . &+;.;.;.;.;.;.;.;.;.;.A.    .     . .     . .     .       .     . .     .       .     . .     ",
"                                            *+;.;.;.=+            -+;.;.;.;.;.;.;.;.;.;.;.                                                                      ",
". .     .       .     . .     . .     .     ;+;.;.;.>+.     .       ;.;.;.;.;.;.;.;.;.;.;.,+      .     . .     .       .     . .     . .     .       .     . . ",
"    .       .       .     .       .       .   ;.;.;.'+  .       .   ;.;.;.;.;.;.;.;.;.;.;.    .       .     .       .       .       .     .       .       .     ",
"    . .     .       .     . .     .       .   )+;.;.!+  . .     .   ~+;.;.;.;.;.;.;.;.;.;.    .     . .     . .     .       .     . .     .       .     . .     ",
". .     .       .     . .     . .     .       {+;.;.%+.     .       ]+;.;.;.;.;.;.;.;.;.;.^+      .     . .     .       .     . .     . .     .       .     . . ",
". .     .       .     . .     . .     .       /+;.;.:.(+    .       _+;.;.;.;.;.;.;.;.;.;.:+      .     . .     .       .     . .     . .     .       .     . . ",
"    . .     .       .     . .     .       .     ;.;.;.  . .     .   <+;.;.;.;.;.;.[+}+|+1+2+  .     . .     . .     .       .     . .     .       .     . .     ",
"    .       .       .     .       .       .     3+4+,.5+6+      .   7+8+9+0+a+b+c+d+d+d+d+d+e+f+      .     .       .       .       .     .       .       .     ",
". .     .       .     . .     . .     .       . g+( ( ( S h+.       i+d+j+k+l+d+d+d+d+d+d+d+d+d+m+n+    . .     .       .     . .     . .     .       .     . . ",
"                                              o+( ( ( ( p+q+        r+d+d+k+k+s+d+d+d+t+d+d+d+d+d+u+v+                                                          ",
"    . .     .       .     . .     .       .     ( ( ( ( w+.     .   x+d+d+y+k+z+d+d+A+B+d+d+d+d+d+d+d+C+    . .     .       .     . .     .       .     . .     ",
"                                              D+( ( ( ( E+          F+d+d+G+k+B+d+d+H+I+d+d+d+d+d+d+d+d+d+J+K+                                                  ",
". .     .       .     . .     . .     .       L+M+( N+O+    .       d+d+d+P+k+Q+d+d+R+k+S+d+d+d+d+d+d+d+d+d+T+U+V+      .     . .     . .     .       .     . . ",
"                                                  W+              X+d+d+d+Y+k+Z+d+d+`+k+ @d+d+d+d+d+d+d+d+d+d+d+.@+@                                            ",
"    . .     .       .     . .     .       .     . .     . .     . @@d+d+d+d+#@$@d+d+u+l+I+d+d+d+d+d+d+d+d+d+d+d+d+%@.       .     . .     .       .     . .     ",
".       .       .       .     .       .       .     . .     .     &@d+d+d+d+*@l+d+=@-@;@k+>@d+d+d+d+d+d+d+d+d+d+d+,@    .       .     .       .       .       . ",
". .     .       .     . .     . .     .       .     . .     .     '@d+d+d+d+)@k+s+!@~@  {@]@^@d+d+d+d+d+d+d+d+d+d+d+    .     . .     . .     .       .     . . ",
"    .       .       .     . .     .       .       .     . .     . /@d+d+d+d+d+(@_@    .       :@<@[@d+d+d+d+d+d+d+d+}@      .     . .     .       .       .     ",
"    . .     .       .     . .     .       .     . .     . .     . |@d+d+d+d+d+1@2@    .       .     3@4@5@d+d+d+d+d+6@      .     . .     .       .     . .     ",
". .     .       .     . .     . .     .       .     . .     .     ^@d+d+d+d+d+d+7@. .     .       .     8@9@d+d+d+d+0@  .     . .     . .     .       .     . . ",
".       .       .       .     .       .       .     .       .     d+d+d+d+d+d+d+  .       .       .       a@d+d+d+d+b@  .       .     .       .       .       . ",
"    . .     .       .     . .     .       .     . .     . .     c@d+d+d+d+d+d+d@e@    .       .     . .     f@d+d+d+7@      .     . .     .       .     . .     ",
"                                                                g@d+d+d+d+d+d+h@                            i@d+d+d+j@                                          ",
". .     .       .     . .     . .     .       .     . .     k@l@d+d+d+d+d+d+d+    . .     .       .     . . |@d+d+d+F+  .     . .     . .     .       .     . . ",
"                                                            m@d+d+d+d+d+d+d+F+                              n@d+d+d+d+X+                                        ",
"    . .     .       .     . .     .       .     . .     o@d+d+d+d+d+d+d+d+d+p@. .     .       .     . .     :@d+d+d+d+q@    .     . .     .       .     . .     ",
"                                                    r@s@d+d+d+d+d+d+d+d+d+d+t@                              u@d+d+d+d+v@                                        ",
". .     .       .     . .     . .     .       w@x@y@d+d+d+d+d+d+d+d+d+z@A@B@C@    . .     .       .     . .   d+d+d+d+x@.     . .     . .     .       .     . . ",
"    .       .       .     .       .       D@E@F@d+d+d+d+d+d+d+d+t+G@    .     . .     .       .       .     . H@d+d+d+'@    .       .     .       .       .     ",
"    . .     .       .     . .     .     I@J@d+d+d+d+d+d+d+d+K@L@M@      .     . .     .       .     . .     . N@d+d+d+O@    .     . .     .       .     . .     ",
".       .       .       .     .     P@Q@d+d+d+d+d+d+d+F+R@  S@      .       .     .       .       .     . .   r@d+d+d+f@T@      .     .       .       .       . ",
". .     .       .     . .     . U@V@W@X@d+d+d+d+d+Y@Z@`@    .       .     . .     . .     .       .     . .     d+d+d+d+ #    . .     . .     .       .     . . ",
"    . .     .       .     . .#+#W@W@W@@###d+d+$#%#&#    . .     .       .     . .     .       .     . .     . *#y@d+d+d+    .     . .     .       .     . .     ",
"    .       .       .     . =#-#W@W@W@W@;#d+>#    .     .       .       .     . .     .       .       .     .   ,#d+d+d+'#  .       .     .       .       .     ",
". .     .       .     . .     )#W@W@W@W@W@    .     . .     .       .     . .     . .     .       .     . .     !#d+d+d+l@    . .     . .     .       .     . . ",
"                                ~#W@W@W@W@{#                                                                    +@d+d+d+.@                                      ",
"    . .     .       .     . .     W@W@W@W@]#    . .     . .     .       .     . .     .       .     . .     . .   ^#d+d+/#  (#  _#:#<#    .       .     . .     ",
"                                  [#W@W@W@}#                                                                      |#d+d+1#2#3#W@W@W@W@4#]#                      ",
". .     .       .     . .     . .   5#W@W@6#  .     . .     .       .     . .     . .     .       .     . .     . 7#8#9#W@W@W@W@W@W@W@W@0#a#  .       .     . . ",
"                                    b#W@W@c#                                                                      d#W@W@W@W@W@W@W@W@e#f#                        ",
"    . .     .       .     . .     .   g#W@h#    . .     . .     .       .     . .     .       .     . .     . .     W@W@W@W@W@W@W@i#j#    .       .     . .     ",
".       .       .       .     .       k#l#m#  .     .       .       .       .     .       .       .       .     .   n#W@W@W@W@o#p#    .       .       .       . ",
". .     .       .     . .     . .     . i#    .     . .     .       .     . .     . .     .       .     . .     .     W@W@q#  . .     . .     .       .     . . ",
"    .       .       .     .       .       r#      .     .       .       .     . .     .       .       .     .       e@s#    .       .     .       .       .     ",
"    . .     .       .     . .     .       .     . .     . .     .       .     . .     .       .     . .     . .     .       .     . .     .       .     . .     "};
