/* XPM */
static char * t_rex_xpm[] = {
"80 80 257 2",
"  	c #FFFFFF",
". 	c #47704C",
"+ 	c #9A8478",
"@ 	c #795E53",
"# 	c #664C42",
"$ 	c #4C3730",
"% 	c #49342D",
"& 	c #9C877A",
"* 	c #4B3C36",
"= 	c #48352E",
"- 	c #988376",
"; 	c #2C1D19",
"> 	c #8E7468",
", 	c #64493F",
"' 	c #A79387",
") 	c #2E1E1A",
"! 	c #A69285",
"~ 	c #644940",
"{ 	c #2F1E1A",
"] 	c #64493F",
"^ 	c #896E62",
"/ 	c #72564C",
"( 	c #81665B",
"_ 	c #5B4138",
": 	c #75594E",
"< 	c #2F1D19",
"[ 	c #AC988C",
"} 	c #6F5449",
"| 	c #654A40",
"1 	c #60453B",
"2 	c #50362E",
"3 	c #5A4037",
"4 	c #886C61",
"5 	c #553A31",
"6 	c #301F1B",
"7 	c #2A1815",
"8 	c #947A6E",
"9 	c #3B241F",
"0 	c #85695E",
"a 	c #3E2722",
"b 	c #81665B",
"c 	c #977D71",
"d 	c #50372F",
"e 	c #402923",
"f 	c #62453B",
"g 	c #231311",
"h 	c #402822",
"i 	c #211311",
"j 	c #50352C",
"k 	c #5B3F36",
"l 	c #A38D80",
"m 	c #86685C",
"n 	c #7A5D52",
"o 	c #987E71",
"p 	c #6E5349",
"q 	c #A69185",
"r 	c #180E0D",
"s 	c #9B8073",
"t 	c #1C100E",
"u 	c #2C1916",
"v 	c #8F7367",
"w 	c #A78D80",
"x 	c #B5A498",
"y 	c #A99285",
"z 	c #B6A295",
"A 	c #B9A99D",
"B 	c #030202",
"C 	c #351F1A",
"D 	c #331C18",
"E 	c #472821",
"F 	c #3F211C",
"G 	c #412620",
"H 	c #1B0F0E",
"I 	c #4F362F",
"J 	c #39211C",
"K 	c #422923",
"L 	c #573B32",
"M 	c #4A3029",
"N 	c #7F5A4F",
"O 	c #4A2A21",
"P 	c #261412",
"Q 	c #79574C",
"R 	c #74584F",
"S 	c #4E332A",
"T 	c #3D1E1A",
"U 	c #835D51",
"V 	c #2F1916",
"W 	c #866155",
"X 	c #462B24",
"Y 	c #45261F",
"Z 	c #896458",
"` 	c #65493F",
" .	c #87685D",
"..	c #593E35",
"+.	c #52372E",
"@.	c #261614",
"#.	c #4A2D25",
"$.	c #62463D",
"%.	c #42231D",
"&.	c #775D55",
"*.	c #8E6E63",
"=.	c #755448",
"-.	c #4E2D23",
";.	c #260E0F",
">.	c #3A231E",
",.	c #52322A",
"'.	c #8D675A",
").	c #4A332D",
"!.	c #543931",
"~.	c #58352B",
"{.	c #422D27",
"].	c #221210",
"^.	c #60443B",
"/.	c #2D1614",
"(.	c #210D0D",
"_.	c #8B6B5F",
":.	c #221513",
"<.	c #6B483C",
"[.	c #5D4138",
"}.	c #906B5E",
"|.	c #4E2F27",
"1.	c #715147",
"2.	c #816155",
"3.	c #795A50",
"4.	c #533026",
"5.	c #5D3B30",
"6.	c #170C0C",
"7.	c #674C43",
"8.	c #7B6259",
"9.	c #5C382D",
"0.	c #71554B",
"a.	c #462E27",
"b.	c #513A34",
"c.	c #67453A",
"d.	c #927166",
"e.	c #6F4B3F",
"f.	c #856559",
"g.	c #6C5148",
"h.	c #644237",
"i.	c #987D72",
"j.	c #2E1C19",
"k.	c #3A1C18",
"l.	c #2A1312",
"m.	c #5C443C",
"n.	c #3E2620",
"o.	c #9F7E71",
"p.	c #6A4E45",
"q.	c #5C3F35",
"r.	c #82675D",
"s.	c #2B1A17",
"t.	c #806359",
"u.	c #7A5448",
"v.	c #7B675F",
"w.	c #563329",
"x.	c #543E37",
"y.	c #956F61",
"z.	c #896F66",
"A.	c #9A796C",
"B.	c #665149",
"C.	c #947569",
"D.	c #806B62",
"E.	c #987466",
"F.	c #3D2925",
"G.	c #120909",
"H.	c #876C62",
"I.	c #8D7268",
"J.	c #3C241F",
"K.	c #35231F",
"L.	c #7C5E53",
"M.	c #371916",
"N.	c #321916",
"O.	c #7D574B",
"P.	c #775145",
"Q.	c #6E5A53",
"R.	c #584039",
"S.	c #1E1110",
"T.	c #6C564E",
"U.	c #7F5E53",
"V.	c #291815",
"W.	c #9B8177",
"X.	c #31201C",
"Y.	c #613B2F",
"Z.	c #6F4E43",
"`.	c #9F867B",
" +	c #604C46",
".+	c #744E42",
"++	c #603E34",
"@+	c #59372E",
"#+	c #5F4841",
"$+	c #6B4C40",
"%+	c #311011",
"&+	c #725E56",
"*+	c #93796F",
"=+	c #8F766C",
"-+	c #392622",
";+	c #A7897D",
">+	c #361313",
",+	c #290F10",
"'+	c #A48476",
")+	c #75625B",
"!+	c #44312C",
"~+	c #643E33",
"{+	c #6C4337",
"]+	c #836E66",
"^+	c #0C0606",
"/+	c #83594A",
"(+	c #684034",
"_+	c #70473A",
":+	c #3D1616",
"<+	c #96786E",
"[+	c #885F50",
"}+	c #A58E84",
"|+	c #8F7D74",
"1+	c #89776F",
"2+	c #7E5547",
"3+	c #1E0B0C",
"4+	c #AB9489",
"5+	c #8C6252",
"6+	c #4B3833",
"7+	c #744A3D",
"8+	c #94837B",
"9+	c #AC9082",
"0+	c #784D3F",
"a+	c #AF998E",
"b+	c #1B0A0B",
"c+	c #85736B",
"d+	c #67564F",
"e+	c #9C8A82",
"f+	c #916454",
"g+	c #7D5142",
"h+	c #A07A69",
"i+	c #B09E95",
"j+	c #946959",
"k+	c #56453F",
"l+	c #451A19",
"m+	c #885A4A",
"n+	c #4C1F1D",
"o+	c #9B6A59",
"p+	c #A27360",
"q+	c #622B28",
"r+	c #A87E6B",
"s+	c #825546",
"t+	c #6A312C",
"u+	c #B8A59A",
"v+	c #5A2724",
"w+	c #542321",
"x+	c #A1938B",
"y+	c #B1816B",
"z+	c #95584B",
"A+	c #723732",
"B+	c #7C3E39",
"C+	c #B58E7A",
"D+	c #894941",
"E+	c #B89B8A",
"F+	c #BFB1A5",
"G+	c #A8665B",
"H+	c #C0A68F",
"                                                                                                                                                                ",
"                                                                                                                                                                ",
"                                                                                                                                                                ",
"                                                                                                                                                                ",
"                                                                                                                                                                ",
"                                                                                                                                                                ",
"                                                                                                                                                                ",
"                                                                                                                                                                ",
"                                                                                                                              l                                 ",
"                                                                                                                        v L.n 0 *+}+`.                          ",
"                                                                                                                    |+]+*.e t C g.e+& + l '+i.`.e+`.            ",
"                                                                                                                  e+1+R.B.K g 6.7 ).&.|+|+*+> - |+1+            ",
"                                                                                                                =+c+#+b.k+a g X.x.g >.m.&+H.I.2.9+W.l           ",
"                                                                                                              &.T.| R.B.&.!.K.!+M 7 { {.I m.T.y.3.H.`.4+        ",
"                                                                                                              / #+k L R.H. +!+) < X.% 2.W g.k 1.r.z.=+y ;+      ",
"                                                                                                              g.#+).q.3.&.T.6+= = p.=+E.p+j+=.'.}.D.T.8 m       ",
"                                                                                                            p.p.Q.$ 5.N n 8.&+)+D.z.I.}.o+y.f+Z }.&.B.t.L.n     ",
"                                                                                                            Z.p. +..q.c.<+*.Q.Q.&+T.8. .j+p+f+j+u.Q R.~ #+#     ",
"                                                                                                            $+=.[.).^.n.c W.v. +#+ +0.2.Z [+Z O.h.h.+.I I 3     ",
"                                                                                                          $.<.Z.q.j 1 e 6+u.5 X C >.X N }.N =.<.S L j K h d     ",
"                                                                                                          _ ..f c.L q.).P N./.;.>+n+;.5 k !.x.L 9 #.4.4.w+%.    ",
"                                                                                                8       8.b.x._ L ~ ..b.N.k.>+l+A+_+b+G.,.-.Y w.w.c.L.m.0.@+    ",
"                                                                                          z.1+I.z.^ *.z.T.b.% $+,.1.p.~ J M.l+A+[+9.B B #+: >.I.    7.[.*.      ",
"                                                                                      t.]+v.]+z.I.I.z.v.d+R.).h.Y u.Z.Z.).>+:+q+D+v+B B B @.k.                  ",
"                                                                                0 _.i.=+8.Q.T.r.( =+]+)+ +m.,.5.%.e.1.$+p.d ).S ~+q+B B B b+#.                  ",
"                                                                    *+i.`.|+|+)+I.v s I.z.I.R r.&+c+v.T.Q.m.k 5.k.@+<.5.q.j j !.G v+B B B (.4.                  ",
"                                                                  4 A.'+`.+ z.L.*+E.'+'+*.H.]+&+Q.)+Q.T.&.T.g.h T O c.{+@+~.++@+E Y.%+b+b+(.4...                ",
"                                                                Z m *.o.v z.t.4 A.s o.C.C.H.c+8.T.Q.p #+B.&+3 C E #.|.++~+(+.+h.#.E 5.>+,+M.-.).                ",
"                            3                                 U._.( r.C.i.H. .d.v *.C. .0 ( )+v.t.U.$+3  +6+a.!.@+5.N.%.@+5.7+c.9.S w.~ %.w+|.I                 ",
"                        b.                                  r.> *+f.L.^ *+z.d.*.^ p.d.R R T.&.D._.Z U.$.L !.I -+G O |.F T +.7+.+g+L 5.~+=.t+{+R                 ",
"                    R.x.                                  8.H.1+H.C.I._.I.v <+=+0 g.: g.g.} ( =+d.'.U 3./ d 9 K ,.,.#.|.h C J <._+5.!.{+S ~+h+p.                ",
"                m.x.x.                                  v.( =+*+r.( *.2.f.*.<+v 4 g.Z.u.1.Z.U.d.o.*.U /+^.G K M #.,.S S |.G M   1.c.@+k Z.#+$.++                ",
"            B. +B.                                T.Q.&+t._.A.W.^ U.Z U :  .C.m f.=..+u..+u.'.'.W Z 2.L G G G G X %.+.S a.a.p.    p.++h.h.<.p.-.n               ",
"        1 # @ t.                          8.&.&+Q.Q.D.D.'.}.o <+C.f.2..+$+_._.'.W U..+O.0+/+W W u.h.~.,.#.E #.O %.%.n.n.a.R.        <.c.h.S c.y.v               ",
"      1.c.1.:                       *.^ r.r.8.8.8.v.D.2.Z A.W.i.<+f.3.h.f Z Z N N W h.{+/+U u..+++5.~.|.G Y E Y Y Y n.C ).            1.e.9.S ,.                ",
"    f.Q P.$+                  z.I.I.z.4 f.U.: &+v.v.R U.Z o.`.l 8 C.3.L !.n Q =..+g+7+e.u.Z e.5.~.@+9.|.F %.E -.O Y T ,.`.                $+++                  ",
"    t.m L.              _._.*.H.I.=+0 ( ^ 5+=.R &.D.8.2. .w i+4+`.s n ..a.g.g.1.<.P.@+|.@+N h.E S +.-.#.%.%.Y G G J O $+y                                       ",
"    2.t.0  .4 U._._.'.f.'.Z *.^ f._.d.y.*.E.f.3.&.&.D.t.}.W.[ a+y W.m c.a.!.$+=.P.e.|.G Y @+5.c.!.X %.%.F Y O #.n.J..+O.9+                                      ",
"    n 2._.'.}.}.d.Z W W Z U U.v _.v C.*.2.t.1.` | B./ t.*.d.;+;+'+C.W $+{.X 5.P..+~.Y T M.N.T e.5 D k.E O #.w.w.-.h.2+u.                                        ",
"      g.3.Z *.f.*.4 2.N N 2.R : g.Z.p # 1 [.j M a.).../ f.f.o.A.E._.Q 7.C J [.h.Y.~.-.E T M.` ++G /.C 4.-.~.w.w.-.7+_+L.                                        ",
"        k $.# | g.R p.$.# ~ _ m._ ..5 d j !.5 M K d b.L 2.U E.}.d. .0.R.6 D K @+5.~.-.O F S 5.E V /.D %.O |.j S 5.++n.                                          ",
"            [.3 [.[.[.L L k L [.^.1 m.3   ..L +.S E {.S U W }.U Z m g.$ X.V G ,.5.9.4.-.E [.f l.,+/.V D >.K K j b.N.p                                           ",
"                                                  @+#.J 3.2.N N N W | !+V ,+C O 5.,.|.#.C 2 [.5.D D e +...      X.e                                             ",
"                                                      C 1.2.N U U W , {.@.(.l.%.K E O C J C S q.K n.|.++        s.#+                                            ",
"                                                        f 1.3.Q '.Q m.-+P (.P P D G F V D n.e c.^.-.h.7.      < >.                                              ",
"                                                          7.L.U u.Z._ -+/.(.3+(.;.,+/.V C C j.$.: ..k a.p     9 {.                                              ",
"                                                            }.W $+# ).>.V (.(.;.l././.u @.:.* R p.p.3 9 $.    C m.                                              ",
"                                                          n Z / $+# ..M s.].g N.J.K     i B.R.j ` g.).J :                                                       ",
"                                                          W 2.7.m.7._ I     D C a.    S.) F.M d , _ a X                                                         ",
"                                                        Q y.C.=.0.p x.S             g C a.I 2 !...).J |                                                         ",
"                                                        u.=.=.1.p.R.9           i ].D G X S 2 !.b.G d                                                           ",
"                                                      <.7+0+u.=.[.{.K.        7 S.N.F Y G #.e K J e                                                             ",
"                                                      ++(+e..+h...7           V V P /.N.V V >.>.                                                                ",
"                                                      ,.~+2+..#.J K.          u D V.P 7                                                                         ",
"                                                      +.e.++n.V g             X.g j.9 9 K.                                                                      ",
"                                                    L S M K.P @.                g S.D n.h M                                                                     ",
"                                                    M J.j.@.s.                  s.g g V J.J.I                                                                   ",
"                                                  ..e 7 :.{                         V ].V.a g R.                                                                ",
"                                                L M j.u K.                            u S.K.-+-+H.                                                              ",
"                                                j X u j.                              u V.u 6+g #                                                               ",
"                                                M e -+..                                V 7 {.g $.                                                              ",
"                                                j L h.                                    J d @.p.                                                              ",
"                                              ....u.<.=.                                  < m.s.3                                                               ",
"                                              !.} N h.Z.                                  J $ K.                                                                ",
"                                              S U.e...:                                   V ) i                                                                 ",
"                                            M a.r.7.X g.                                    X.                                                                  ",
"                                            a.e p x.h $+                                                                                                        ",
"                                          $ K.K.7.!+@.S                                                                                                         ",
"                                      ` d K.g M Z.{.S.7 >.% ~                                                                                                   ",
"                                    $ $ j.i s.).x.{.t P u 6 X.                                                                                                  ",
"                                  !+:.s.i i K.s.F.-+    @.X.i @.                                                                                                ",
"                                    S.        :.@.                                                                                                              ",
"                                                                                                                                                                ",
"                                                                                                                                                                ",
"                                                                                                                                                                ",
"                                                                                                                                                                ",
"                                                                                                                                                                ",
"                                                                                                                                                                ",
"                                                                                                                                                                ",
"                                                                                                                                                                "};
