/* XPM */
static char * dino_xpm[] = {
"40 40 227 2",
"  	c #FFFFFF",
". 	c #B7C1A9",
"+ 	c #A9B495",
"@ 	c #B2BD9F",
"# 	c #BFC9AA",
"$ 	c #899483",
"% 	c #919A7F",
"& 	c #A0AA91",
"* 	c #BCC5AD",
"= 	c #71795D",
"- 	c #8B9474",
"; 	c #A3AB89",
"> 	c #AFBA9D",
", 	c #4C5855",
"' 	c #626E55",
") 	c #5F6D5A",
"! 	c #939260",
"~ 	c #91A182",
"{ 	c #7B8973",
"] 	c #BAC5AE",
"^ 	c #6A6C5D",
"/ 	c #5F6A4D",
"( 	c #8E9776",
"_ 	c #A8B394",
": 	c #636B6B",
"< 	c #606950",
"[ 	c #5C664B",
"} 	c #68704E",
"| 	c #AC9B82",
"1 	c #A9AA88",
"2 	c #8A926E",
"3 	c #BBC4A9",
"4 	c #828575",
"5 	c #8D9481",
"6 	c #808B68",
"7 	c #7D8877",
"8 	c #57615B",
"9 	c #5D6957",
"0 	c #626C54",
"a 	c #545B40",
"b 	c #8E9976",
"c 	c #9EA681",
"d 	c #BFB79A",
"e 	c #808678",
"f 	c #6B725B",
"g 	c #707D63",
"h 	c #77897C",
"i 	c #869388",
"j 	c #889295",
"k 	c #505B46",
"l 	c #71846A",
"m 	c #8A9378",
"n 	c #797C69",
"o 	c #4F5540",
"p 	c #647154",
"q 	c #5D6D59",
"r 	c #7E8F82",
"s 	c #7E8F83",
"t 	c #78877D",
"u 	c #7E8D7A",
"v 	c #75867F",
"w 	c #849188",
"x 	c #68726D",
"y 	c #627159",
"z 	c #97A586",
"A 	c #666756",
"B 	c #424731",
"C 	c #3E4830",
"D 	c #5D6955",
"E 	c #7F8D75",
"F 	c #728576",
"G 	c #82907E",
"H 	c #78826F",
"I 	c #899575",
"J 	c #8B997B",
"K 	c #72826E",
"L 	c #657461",
"M 	c #5B6A56",
"N 	c #495945",
"O 	c #748365",
"P 	c #717F65",
"Q 	c #73856C",
"R 	c #7A8A73",
"S 	c #9CAB8E",
"T 	c #A6B292",
"U 	c #3B3D26",
"V 	c #404628",
"W 	c #454D35",
"X 	c #687657",
"Y 	c #586340",
"Z 	c #606A45",
"` 	c #84926C",
" .	c #9CA982",
"..	c #929F7C",
"+.	c #5F6C59",
"@.	c #55644C",
"#.	c #3D4B37",
"$.	c #4B5942",
"%.	c #818E6A",
"&.	c #91A17C",
"*.	c #AEB99B",
"=.	c #B6C3A6",
"-.	c #767866",
";.	c #3F452B",
">.	c #545D3B",
",.	c #4C5332",
"'.	c #606848",
").	c #808D66",
"!.	c #A4B18D",
"~.	c #B7C2A1",
"{.	c #717D5C",
"].	c #535F46",
"^.	c #54634D",
"/.	c #3A493A",
"(.	c #627049",
"_.	c #B0BEA0",
":.	c #BCC8AA",
"<.	c #B6C1A6",
"[.	c #8A9172",
"}.	c #848D71",
"|.	c #8C9476",
"1.	c #4F553C",
"2.	c #84887A",
"3.	c #767D67",
"4.	c #75825B",
"5.	c #A1AD89",
"6.	c #C0CBAD",
"7.	c #778260",
"8.	c #3F4A31",
"9.	c #4C563D",
"0.	c #3A4224",
"a.	c #86956D",
"b.	c #A2AE8E",
"c.	c #9DA88A",
"d.	c #98A380",
"e.	c #828870",
"f.	c #A2A889",
"g.	c #808576",
"h.	c #5B6546",
"i.	c #808C66",
"j.	c #9DA985",
"k.	c #B2BE9C",
"l.	c #6B7653",
"m.	c #586141",
"n.	c #575F3F",
"o.	c #616B47",
"p.	c #A4B290",
"q.	c #828C71",
"r.	c #97A685",
"s.	c #778363",
"t.	c #7C8565",
"u.	c #626B4D",
"v.	c #87956F",
"w.	c #A3B08D",
"x.	c #9AA587",
"y.	c #748064",
"z.	c #5D694D",
"A.	c #6E785C",
"B.	c #6E7559",
"C.	c #A7B397",
"D.	c #9DA68A",
"E.	c #5C6443",
"F.	c #919C7A",
"G.	c #A4AF90",
"H.	c #676F64",
"I.	c #606F4C",
"J.	c #98A282",
"K.	c #90997B",
"L.	c #96A586",
"M.	c #9BAC8B",
"N.	c #7C846C",
"O.	c #6E7858",
"P.	c #74805D",
"Q.	c #97A282",
"R.	c #626D4F",
"S.	c #8C9A74",
"T.	c #80896A",
"U.	c #707958",
"V.	c #97A483",
"W.	c #97A185",
"X.	c #A9B598",
"Y.	c #8B917F",
"Z.	c #707B58",
"`.	c #7D8A67",
" +	c #828E6D",
".+	c #8A9673",
"++	c #A4B08D",
"@+	c #9CA585",
"#+	c #5E6848",
"$+	c #869270",
"%+	c #848E6F",
"&+	c #8B9877",
"*+	c #B7C4A5",
"=+	c #9BA085",
"-+	c #6F7360",
";+	c #859071",
">+	c #8E9977",
",+	c #AAB99A",
"'+	c #7B826C",
")+	c #8E9B78",
"!+	c #85926E",
"~+	c #BAC7AB",
"{+	c #828D6F",
"]+	c #B5C3A5",
"^+	c #93A07C",
"/+	c #BBC4B0",
"(+	c #798269",
"_+	c #9EAA90",
":+	c #7F8C6F",
"<+	c #818F6A",
"[+	c #AEBAA1",
"}+	c #768161",
"|+	c #97A686",
"1+	c #A2B090",
"2+	c #A6B496",
"3+	c #7C8770",
"4+	c #93A080",
"5+	c #95A485",
"6+	c #768760",
"7+	c #9AA986",
"8+	c #C6D0BB",
"9+	c #909A86",
"0+	c #6C7A55",
"a+	c #7A876B",
"b+	c #7F8C6B",
"c+	c #8F9D7A",
"d+	c #94A17D",
"                                                                                ",
"                                                                                ",
"                                                                                ",
"                                                                                ",
"                                                                                ",
"                                                                                ",
"                                                                                ",
"                                                                                ",
"                                                                                ",
"                                                                                ",
"  . + @ #                                                       $ % & *         ",
"        = - ; >                                               , ' ) ! ~ { ]     ",
"            ^ / ( _                                         : < [ } | 1 2 3     ",
"                4 5 6 7                                     8 9 0 a b c d       ",
"                    e f g h i                             j k l m               ",
"                      n o p q r s                 t u v w x y z                 ",
"                        A B C D E F G H I J K L M N O P Q R S T                 ",
"                            U V W X Y Z `  ...+.@.#.$.%.&.*.=.                  ",
"                              -.;.>.,.'.).!.~.{.].^./.(._.:.<.  [.}.|.          ",
"                                  1.2.3.4.5.6.7.8.9.0.a.b.c.    d.e.f.          ",
"                                    g.h.i.j.k.l.m.n.o.p.q.r.s.t.                ",
"                                      u.v.w.x.y.z.A.B.C.      D.                ",
"                                      E.F.G.  H.I.J.  K.  L.M.                  ",
"                                  N.O.P.Q.    R.S.      T.U.V.W.X.              ",
"                                Y.Z.`. +      .+++            @+                ",
"                                #+$+%+        &+*+            =+                ",
"                            -+;+>+            P.,+                              ",
"                            '+)+                !+~+                            ",
"                            {+]+  ^+/+          (+_+:+<+[+                      ",
"                            }+|+1+2+              3+4+5+6+7+8+                  ",
"                            9+0+a+b+c+d+                                        ",
"                                                                                ",
"                                                                                ",
"                                                                                ",
"                                                                                ",
"                                                                                ",
"                                                                                ",
"                                                                                ",
"                                                                                ",
"                                                                                "};
