/* XPM */
static char * gate_xpm[] = {
"40 40 789 2",
"  	c #FFFFFF",
". 	c #6B625D",
"+ 	c #6D6460",
"@ 	c #736B67",
"# 	c #756D68",
"$ 	c #60524A",
"% 	c #564842",
"& 	c #7E7A7A",
"* 	c #57565C",
"= 	c #635752",
"- 	c #685A53",
"; 	c #675951",
"> 	c #64554E",
", 	c #7D7979",
"' 	c #56555B",
") 	c #64564E",
"! 	c #695A51",
"~ 	c #75645B",
"{ 	c #655044",
"] 	c #614D44",
"^ 	c #86807E",
"/ 	c #5B575A",
"( 	c #735E52",
"_ 	c #746157",
": 	c #817067",
"< 	c #736157",
"[ 	c #654D40",
"} 	c #6A5245",
"| 	c #7B7370",
"1 	c #5F5758",
"2 	c #796153",
"3 	c #806657",
"4 	c #846F64",
"5 	c #856856",
"6 	c #88654D",
"7 	c #826049",
"8 	c #7C6E66",
"9 	c #C38E4B",
"0 	c #BF8854",
"a 	c #5B5653",
"b 	c #4B4640",
"c 	c #504A3B",
"d 	c #484340",
"e 	c #56504C",
"f 	c #4F4A46",
"g 	c #4D4745",
"h 	c #5A5450",
"i 	c #595553",
"j 	c #6C5E58",
"k 	c #6E6769",
"l 	c #8D6B54",
"m 	c #8E6C56",
"n 	c #8D715F",
"o 	c #987255",
"p 	c #AA8058",
"q 	c #A97B55",
"r 	c #7F6C60",
"s 	c #564E48",
"t 	c #644D40",
"u 	c #AF7738",
"v 	c #D89747",
"w 	c #E3A34B",
"x 	c #C1813F",
"y 	c #E28149",
"z 	c #855C3B",
"A 	c #DA8C48",
"B 	c #A77C45",
"C 	c #B08442",
"D 	c #B97440",
"E 	c #DAA246",
"F 	c #B67B45",
"G 	c #A07941",
"H 	c #322C2B",
"I 	c #69574A",
"J 	c #B38659",
"K 	c #AE845B",
"L 	c #A68265",
"M 	c #B88954",
"N 	c #E4BF71",
"O 	c #DEB665",
"P 	c #927959",
"Q 	c #534842",
"R 	c #8B6C40",
"S 	c #BD7A3C",
"T 	c #D89546",
"U 	c #E5854A",
"V 	c #C2793E",
"W 	c #E37947",
"X 	c #A9843A",
"Y 	c #E17B48",
"Z 	c #C28C41",
"` 	c #BA793C",
" .	c #D08442",
"..	c #DB9C44",
"+.	c #CE8241",
"@.	c #9F7745",
"#.	c #372F2B",
"$.	c #765E39",
"%.	c #DFBB72",
"&.	c #DCB66C",
"*.	c #C29662",
"=.	c #D1A25E",
"-.	c #E7CC79",
";.	c #EED57D",
">.	c #9C875D",
",.	c #5E524A",
"'.	c #956B30",
").	c #D08141",
"!.	c #7C632A",
"~.	c #726126",
"{.	c #B07A37",
"].	c #A87E35",
"^.	c #645624",
"/.	c #605024",
"(.	c #635424",
"_.	c #614E27",
":.	c #77612C",
"<.	c #80672A",
"[.	c #5D421F",
"}.	c #8F6B43",
"|.	c #372D2A",
"1.	c #87754B",
"2.	c #EED580",
"3.	c #E5CA75",
"4.	c #D0A35D",
"5.	c #B88A56",
"6.	c #775B3F",
"7.	c #8D724E",
"8.	c #866E4D",
"9.	c #5D524B",
"0.	c #6C4A38",
"a.	c #6E4E3E",
"b.	c #6C5549",
"c.	c #4E3E36",
"d.	c #CF8043",
"e.	c #C78541",
"f.	c #C67F44",
"g.	c #CC8742",
"h.	c #B77C3A",
"i.	c #C98745",
"j.	c #6B594E",
"k.	c #6C574A",
"l.	c #785C4D",
"m.	c #775B49",
"n.	c #2C2523",
"o.	c #715B3D",
"p.	c #7D6341",
"q.	c #7F6246",
"r.	c #B38552",
"s.	c #543F33",
"t.	c #43271A",
"u.	c #564136",
"v.	c #60534B",
"w.	c #5C554F",
"x.	c #7F6C5F",
"y.	c #886233",
"z.	c #6E5228",
"A.	c #9A7235",
"B.	c #86682C",
"C.	c #88642E",
"D.	c #AC854C",
"E.	c #6B5A52",
"F.	c #393534",
"G.	c #2B1F1C",
"H.	c #331F16",
"I.	c #483328",
"J.	c #58453B",
"K.	c #72635B",
"L.	c #423631",
"M.	c #483D39",
"N.	c #564B46",
"O.	c #5A504B",
"P.	c #62463E",
"Q.	c #3D3634",
"R.	c #635852",
"S.	c #60524B",
"T.	c #7A685F",
"U.	c #53433C",
"V.	c #57453D",
"W.	c #57453C",
"X.	c #56473F",
"Y.	c #695549",
"Z.	c #5E2E16",
"`.	c #814C35",
" +	c #916352",
".+	c #77554D",
"++	c #6F514C",
"@+	c #6B514A",
"#+	c #64423A",
"$+	c #5C2C20",
"%+	c #7C3B26",
"&+	c #8E5440",
"*+	c #AF7358",
"=+	c #B5785A",
"-+	c #AC7257",
";+	c #876051",
">+	c #372A29",
",+	c #231009",
"'+	c #42342E",
")+	c #675348",
"!+	c #695449",
"~+	c #645046",
"{+	c #6F5B4F",
"]+	c #634C40",
"^+	c #5B463B",
"/+	c #5D463B",
"(+	c #5E4A40",
"_+	c #674E41",
":+	c #733619",
"<+	c #924E27",
"[+	c #955027",
"}+	c #884420",
"|+	c #8F4721",
"1+	c #833F1C",
"2+	c #783A1C",
"3+	c #87492C",
"4+	c #A86338",
"5+	c #B36936",
"6+	c #B16331",
"7+	c #AA5F2F",
"8+	c #A96133",
"9+	c #814726",
"0+	c #31150C",
"a+	c #220E07",
"b+	c #514139",
"c+	c #6C5649",
"d+	c #6F5444",
"e+	c #725544",
"f+	c #7D6557",
"g+	c #624C41",
"h+	c #715441",
"i+	c #785541",
"j+	c #664735",
"k+	c #5F4538",
"l+	c #644A3D",
"m+	c #7A3F1F",
"n+	c #905029",
"o+	c #905129",
"p+	c #7E4220",
"q+	c #793919",
"r+	c #7F3F1E",
"s+	c #793F1F",
"t+	c #985533",
"u+	c #C07946",
"v+	c #A05E31",
"w+	c #8D4B25",
"x+	c #915028",
"y+	c #844826",
"z+	c #522614",
"A+	c #3B1B0E",
"B+	c #250F08",
"C+	c #4E3A30",
"D+	c #6D5445",
"E+	c #80604B",
"F+	c #8A6851",
"G+	c #7A5E4B",
"H+	c #7E6353",
"I+	c #694E41",
"J+	c #8B6142",
"K+	c #92653C",
"L+	c #926947",
"M+	c #7C5A45",
"N+	c #63483A",
"O+	c #7F4726",
"P+	c #96572E",
"Q+	c #A05C30",
"R+	c #98552B",
"S+	c #995027",
"T+	c #934B23",
"U+	c #7D3F1F",
"V+	c #9C5C38",
"W+	c #BA7544",
"X+	c #B06A38",
"Y+	c #AC6332",
"Z+	c #9E562B",
"`+	c #7E4121",
" @	c #542714",
".@	c #39190D",
"+@	c #200D07",
"@@	c #4E3A2E",
"#@	c #694A37",
"$@	c #8C6444",
"%@	c #986C49",
"&@	c #83604B",
"*@	c #936B47",
"=@	c #C29250",
"-@	c #C6964B",
";@	c #B7864A",
">@	c #875C3A",
",@	c #6E4F3D",
"'@	c #7D4424",
")@	c #9B5B32",
"!@	c #AA6839",
"~@	c #A05C31",
"{@	c #98552D",
"]@	c #965027",
"^@	c #864926",
"/@	c #9C5C39",
"(@	c #B56E3F",
"_@	c #AB6635",
":@	c #A45A2C",
"<@	c #A76132",
"[@	c #93522B",
"}@	c #512615",
"|@	c #421E11",
"1@	c #1F0D07",
"2@	c #553F31",
"3@	c #865E3E",
"4@	c #AE7E48",
"5@	c #CFA156",
"6@	c #C89854",
"7@	c #996A46",
"8@	c #A87744",
"9@	c #E3BD60",
"0@	c #F1D674",
"a@	c #C99847",
"b@	c #95653B",
"c@	c #6F503F",
"d@	c #723A1C",
"e@	c #7D4624",
"f@	c #AF6D3C",
"g@	c #A15B2F",
"h@	c #90502A",
"i@	c #955029",
"j@	c #864824",
"k@	c #A05E39",
"l@	c #B36C3C",
"m@	c #A35B2E",
"n@	c #985025",
"o@	c #894925",
"p@	c #9E592E",
"q@	c #572916",
"r@	c #37180D",
"s@	c #271109",
"t@	c #644E3D",
"u@	c #936540",
"v@	c #CFA153",
"w@	c #F2D777",
"x@	c #E3BF64",
"y@	c #AB7845",
"z@	c #875B35",
"A@	c #8E7551",
"B@	c #9A835A",
"C@	c #B08246",
"D@	c #94663E",
"E@	c #715341",
"F@	c #763D1E",
"G@	c #814624",
"H@	c #935930",
"I@	c #93512A",
"J@	c #935029",
"K@	c #824523",
"L@	c #9D5B36",
"M@	c #B56C3C",
"N@	c #A66132",
"O@	c #9E572B",
"P@	c #8A4520",
"Q@	c #9C5227",
"R@	c #482010",
"S@	c #2F140A",
"T@	c #210E08",
"U@	c #574031",
"V@	c #87593A",
"W@	c #AF7E43",
"X@	c #8A754A",
"Y@	c #8F7650",
"Z@	c #94663F",
"`@	c #6A5951",
" #	c #443229",
".#	c #422415",
"+#	c #6C4D3A",
"@#	c #523B2F",
"##	c #654432",
"$#	c #6B4C3B",
"%#	c #693218",
"&#	c #854724",
"*#	c #753B1C",
"=#	c #A15D30",
"-#	c #A25C30",
";#	c #8D4F29",
">#	c #814421",
",#	c #9A5734",
"'#	c #B26B3D",
")#	c #9E592D",
"!#	c #894823",
"~#	c #974E25",
"{#	c #97542A",
"]#	c #281209",
"^#	c #2D1309",
"/#	c #210F09",
"(#	c #4B382D",
"_#	c #634534",
":#	c #492F21",
"<#	c #5A311A",
"[#	c #593929",
"}#	c #584338",
"|#	c #6F5A4E",
"1#	c #5A4C45",
"2#	c #301F18",
"3#	c #422518",
"4#	c #684632",
"5#	c #71503D",
"6#	c #6A4937",
"7#	c #6B4E3E",
"8#	c #632C14",
"9#	c #7F401E",
"0#	c #844520",
"a#	c #874E29",
"b#	c #A86131",
"c#	c #A25E31",
"d#	c #7C4020",
"e#	c #9E5934",
"f#	c #B77242",
"g#	c #9E5B2E",
"h#	c #8E4822",
"i#	c #975026",
"j#	c #6B3A1D",
"k#	c #2B1209",
"l#	c #2E1409",
"m#	c #412D24",
"n#	c #57392A",
"o#	c #532F1E",
"p#	c #623A24",
"q#	c #785A47",
"r#	c #614C40",
"s#	c #63534B",
"t#	c #6B584E",
"u#	c #553E32",
"v#	c #6B4A37",
"w#	c #865B3F",
"x#	c #9D6D47",
"y#	c #9B6E4A",
"z#	c #7B5943",
"A#	c #612B13",
"B#	c #834420",
"C#	c #82411E",
"D#	c #8B4B25",
"E#	c #93552B",
"F#	c #B16734",
"G#	c #874A26",
"H#	c #A25E38",
"I#	c #B16939",
"J#	c #A1572A",
"K#	c #8B4924",
"L#	c #602E16",
"M#	c #33160B",
"N#	c #30140B",
"O#	c #1E0C06",
"P#	c #4F392B",
"Q#	c #8B5C3B",
"R#	c #976741",
"S#	c #8F6345",
"T#	c #7F5840",
"U#	c #5B4235",
"V#	c #524138",
"W#	c #54453D",
"X#	c #553F34",
"Y#	c #674A3A",
"Z#	c #8D6445",
"`#	c #946842",
" $	c #9C734E",
".$	c #775946",
"+$	c #642C13",
"@$	c #7F3F1D",
"#$	c #7E3E1D",
"$$	c #8E4D26",
"%$	c #8C4D25",
"&$	c #A65E2E",
"*$	c #9F592D",
"=$	c #A36039",
"-$	c #AC6336",
";$	c #A75F2F",
">$	c #A55F2F",
",$	c #834421",
"'$	c #683319",
")$	c #38170C",
"!$	c #2F1409",
"~$	c #4E392A",
"{$	c #8D603E",
"]$	c #91633E",
"^$	c #896040",
"/$	c #7A5B48",
"($	c #634D40",
"_$	c #423530",
":$	c #6D625C",
"<$	c #725F53",
"[$	c #7C5F4D",
"}$	c #A2764E",
"|$	c #CEA85F",
"1$	c #DDC06B",
"2$	c #D2AB5E",
"3$	c #70523C",
"4$	c #632B13",
"5$	c #75381A",
"6$	c #7B3C1C",
"7$	c #914E26",
"8$	c #A66031",
"9$	c #874923",
"0$	c #995328",
"a$	c #A46037",
"b$	c #A55E35",
"c$	c #A75D2E",
"d$	c #904E26",
"e$	c #914C25",
"f$	c #5D2D15",
"g$	c #2E1309",
"h$	c #281109",
"i$	c #1A0A05",
"j$	c #503B25",
"k$	c #CCA358",
"l$	c #DEC26B",
"m$	c #CCA45D",
"n$	c #8B6040",
"o$	c #6F5242",
"p$	c #57473F",
"q$	c #60544E",
"r$	c #50433D",
"s$	c #604B40",
"t$	c #775642",
"u$	c #AB794A",
"v$	c #E2BD6A",
"w$	c #ECD786",
"x$	c #DCB660",
"y$	c #704F36",
"z$	c #693116",
"A$	c #72371A",
"B$	c #74381A",
"C$	c #7F411F",
"D$	c #95542B",
"E$	c #83421F",
"F$	c #9C5732",
"G$	c #A35C33",
"H$	c #914D25",
"I$	c #7D3D1D",
"J$	c #874520",
"K$	c #552711",
"L$	c #291108",
"M$	c #210E07",
"N$	c #160904",
"O$	c #5A472D",
"P$	c #D9B059",
"Q$	c #EBD685",
"R$	c #DEB562",
"S$	c #9B693C",
"T$	c #4A382F",
"U$	c #473933",
"V$	c #574A44",
"W$	c #604E43",
"X$	c #815C45",
"Y$	c #654D3D",
"Z$	c #4A433E",
"`$	c #6F5644",
" %	c #614636",
".%	c #682D13",
"+%	c #8E4B24",
"@%	c #945129",
"#%	c #8F4B25",
"$%	c #8E4B23",
"%%	c #83411E",
"&%	c #9C5832",
"*%	c #A45C34",
"=%	c #954F27",
"-%	c #9E582D",
";%	c #945027",
">%	c #733B1C",
",%	c #2B1109",
"'%	c #140804",
")%	c #37271B",
"!%	c #4F3625",
"~%	c #413E3C",
"{%	c #624A3B",
"]%	c #7C5840",
"^%	c #614839",
"/%	c #4F3F37",
"(%	c #433933",
"_%	c #615A56",
":%	c #4E443E",
"<%	c #5D5049",
"[%	c #594B43",
"}%	c #39312D",
"|%	c #131519",
"1%	c #282422",
"2%	c #4E463F",
"3%	c #5E4D44",
"4%	c #622E1E",
"5%	c #7C3C1C",
"6%	c #884622",
"7%	c #8A4923",
"8%	c #935028",
"9%	c #8B4A24",
"0%	c #96522F",
"a%	c #A25B33",
"b%	c #955028",
"c%	c #9C592D",
"d%	c #945228",
"e%	c #69361A",
"f%	c #37180C",
"g%	c #271008",
"h%	c #110703",
"i%	c #170F0D",
"j%	c #121216",
"k%	c #121312",
"l%	c #3A3633",
"m%	c #4F423B",
"n%	c #50443E",
"o%	c #3A322D",
"p%	c #453F3D",
"q%	c #443F3C",
"r%	c #3C3531",
"s%	c #47403C",
"t%	c #403B37",
"u%	c #2A2929",
"v%	c #2E2D2C",
"w%	c #363331",
"x%	c #3A3531",
"y%	c #695852",
"z%	c #603426",
"A%	c #884C27",
"B%	c #874924",
"C%	c #8E4E26",
"D%	c #935329",
"E%	c #915026",
"F%	c #894C26",
"G%	c #94522F",
"H%	c #A96338",
"I%	c #874824",
"J%	c #884B25",
"K%	c #8B4D26",
"L%	c #492210",
"M%	c #261109",
"N%	c #181210",
"O%	c #201F20",
"P%	c #2A2826",
"Q%	c #3B3633",
"R%	c #403B38",
"S%	c #423B37",
"T%	c #413A36",
"U%	c #3D3532",
"V%	c #47413E",
"W%	c #38332F",
"X%	c #3F3A37",
"Y%	c #443E3B",
"Z%	c #3C3835",
"`%	c #403C39",
" &	c #413C3A",
".&	c #383431",
"+&	c #302E2B",
"@&	c #5E483F",
"#&	c #58250F",
"$&	c #874821",
"%&	c #95542A",
"&&	c #A16032",
"*&	c #98562A",
"=&	c #A15E30",
"-&	c #844721",
";&	c #8F4F2F",
">&	c #A15C33",
",&	c #864522",
"'&	c #965429",
")&	c #3B1B0D",
"!&	c #2B1309",
"~&	c #210D07",
"{&	c #120703",
"]&	c #2D2826",
"^&	c #312E2C",
"/&	c #322F2C",
"(&	c #3E3937",
"_&	c #322F2D",
":&	c #36322E",
"<&	c #3A3632",
"[&	c #423D3A",
"}&	c #524C49",
"|&	c #5F5B58",
"1&	c #494440",
"2&	c #4A4440",
"3&	c #3B3634",
"4&	c #363230",
"5&	c #46423F",
"6&	c #363332",
"7&	c #312E2D",
"8&	c #654D42",
"9&	c #622D15",
"0&	c #7C3E1D",
"a&	c #99582D",
"b&	c #9B5B2F",
"c&	c #935228",
"d&	c #773D1D",
"e&	c #905230",
"f&	c #9E5A33",
"g&	c #854623",
"h&	c #8D4B23",
"i&	c #844823",
"j&	c #2A130A",
"k&	c #1F0E06",
"l&	c #2D2726",
"m&	c #3D3937",
"n&	c #2F2C2A",
"o&	c #2D2928",
"p&	c #373331",
"q&	c #393432",
"r&	c #433E3B",
"s&	c #55504D",
"t&	c #5B5755",
"u&	c #47423E",
"v&	c #35322F",
"w&	c #35312F",
"x&	c #332F2C",
"y&	c #2E2B29",
"z&	c #5D473D",
"A&	c #582510",
"B&	c #814321",
"C&	c #A36234",
"D&	c #A66636",
"E&	c #A16134",
"F&	c #97572E",
"G&	c #793E1E",
"H&	c #8B4E2F",
"I&	c #A36137",
"J&	c #8C4B25",
"K&	c #854520",
"L&	c #2D150A",
"M&	c #2B130A",
"N&	c #200F08",
"O&	c #120803",
"P&	c #191210",
"Q&	c #3B3735",
"R&	c #34302E",
"S&	c #2D2A28",
"T&	c #3D3935",
"U&	c #423E3B",
"V&	c #413D3A",
"W&	c #554F4C",
"X&	c #45413E",
"Y&	c #514C48",
"Z&	c #4A4643",
"`&	c #413C39",
" *	c #433F3B",
".*	c #3A3634",
"+*	c #363330",
"@*	c #5F483D",
"#*	c #612A13",
"$*	c #844421",
"%*	c #9A572B",
"&*	c #9F5A2D",
"**	c #99572B",
"=*	c #7C3F1E",
"-*	c #854A2D",
";*	c #A6653A",
">*	c #96542A",
",*	c #8E4C25",
"'*	c #753C1C",
")*	c #3C1D10",
"!*	c #35190E",
"~*	c #2B140A",
"{*	c #150905",
"]*	c #17120F",
"^*	c #45413D",
"/*	c #3D3936",
"(*	c #3C3735",
"_*	c #3F3B38",
":*	c #46413E",
"<*	c #4A4542",
"[*	c #3B3835",
"}*	c #48433F",
"|*	c #544F4B",
"1*	c #4E4946",
"2*	c #3C3836",
"3*	c #5A514B",
"4*	c #484745",
"5*	c #534E4B",
"6*	c #44403C",
"7*	c #47423F",
"8*	c #373431",
"9*	c #423D3B",
"0*	c #34312F",
"a*	c #33302F",
"b*	c #3A3734",
"c*	c #3D3A38",
"d*	c #302E2C",
"e*	c #464140",
"f*	c #4B4845",
"g*	c #3E3B39",
"h*	c #504C4A",
"i*	c #43403D",
"j*	c #3F3B39",
"k*	c #44403D",
"l*	c #403D3B",
"m*	c #403C3A",
"n*	c #474341",
"                                                                                ",
"                                                                                ",
"                                                                                ",
"                  . +                                     @ #                   ",
"                  $ % &                                 * = -                   ",
"                  ; > ,                                 ' ) !                   ",
"                ~ { ] ^                                 / ( _ :                 ",
"                < [ } |                                 1 2 3 4                 ",
"                5 6 7 8     9 0 a b c d e f g h i j     k l m n                 ",
"                o p q r s t u v w x y z A B C D E F G H I J K L                 ",
"                M N O P Q R S T U V W X Y Z `  ...+.@.#.$.%.&.*.                ",
"                =.-.;.>.,.'.).!.~.{.].^./.(._.:.<.[.}.|.1.2.3.4.                ",
"                5.6.7.8.9.0.a.b.c.d.e.f.g.h.i.j.k.l.m.n.o.p.q.r.                ",
"                s.t.u.v.w.x.      y.z.A.B.C.D.      E.F.G.H.I.J.                ",
"              K.L.M.N.O.                P.              Q.N.R.S.T.              ",
"              U.V.W.X.Y.Z.`. +.+++@+#+$+%+&+*+=+-+;+>+,+'+)+!+~+{+              ",
"              ]+^+/+(+_+:+<+[+}+|+1+2+3+4+5+6+7+8+9+0+a+b+c+d+e+f+              ",
"            g+h+i+j+k+l+m+n+o+p+q+r+s+t+u+v+w+x+y+z+A+B+C+D+E+F+G+H+            ",
"            I+J+K+L+M+N+O+P+Q+R+S+T+U+V+W+X+Y+Z+`+ @.@+@@@#@$@%@J+&@            ",
"            *@=@-@;@>@,@'@)@!@~@{@]@^@/@(@_@:@<@[@}@|@1@2@3@4@5@6@7@            ",
"            8@9@0@a@b@c@d@e@f@g@h@i@j@k@l@m@n@o@p@q@r@s@t@u@v@w@x@y@            ",
"            z@A@B@C@D@E@F@G@H@m@I@J@K@L@M@N@O@P@Q@R@S@T@U@V@W@X@Y@Z@            ",
"          `@ #.#+#@###$#%#&#*#=#-#;#>#,#'#)#!#~#{#]#^#/#(#_#:#<#[#}#|#          ",
"          1#2#3#4#5#6#7#8#9#0#a#b#c#d#e#f#g#h#i#j#k#l#,+m#n#o#p#q#r#s#          ",
"          t#u#v#w#x#y#z#A#B#C#D#E#F#G#H#I#I@J#K#L#M#N#O#P#Q#R#S#T#U#V#          ",
"          W#X#Y#Z#`# $.$+$@$#$$$%$&$*$=$-$;$>$,$'$)$!$O#~${$]$^$/$($_$          ",
"        :$<$[$}$|$1$2$3$4$5$6$7$8$9$0$a$b$c$d$e$f$g$h$i$j$k$l$m$n$o$p$q$        ",
"        r$s$t$u$v$w$x$y$z$A$B$C$D$E$p+F$G$H$I$J$K$L$M$N$O$P$Q$R$S$j+T$U$        ",
"        V$W$d+X$Y$Z$`$ %.%+%@%#%$%h#%%&%*%=%-%;%>%r@,%'%)%!%~%{%]%^%/%(%        ",
"      _%:%<%[%}%|%1%2%3%4%5%C#6%7%8%9%0%a%b%c%d%e%f%g%h%i%j%k%l%:%m%n%o%p%      ",
"      q%r%s%t%u%v%w%x%y%z%A%B%C%D%E%F%G%H%I%J%K%L%M%O#'%N%O%P%Q%R%S%T%U%V%      ",
"      W%X%Y%Z%`% &.&+&@&#&$&%&&&*&=&-&;&>&,&$%'&)&!&~&{&]&^&/&(&_&:&<&[&}&      ",
"    |&1&2&3&4&5&6&.&7&8&9&0&a&b&%&c&d&e&f&g&h&i&]#j&k&{&l&m&n&o&p&q&Z%r&V%s&    ",
"    t&s&u&p&v&Z%w&x&y&z&A&B&C&D&E&F&G&H&I&J&K&*#L&M&N&O&P&Q&R&S&X%T&U&Z%V&W&    ",
"    X&Q&Y&Z&`& *.*+*l%@*#*$*%*&***H$=*-*;*>*,*'*)*!*~*{*]*^*/*4&(*_*:*V&p&<*    ",
"    Z%[*}*|*5&`%1*X%2*3*                                4*5*6*7*3&r&8*Q&9*X&    ",
"    0*a*b*c*d*e*f*g*w%                                    h*~%i*j*k*w%l*m*n*    ",
"                                                                                ",
"                                                                                ",
"                                                                                "};
