/* XPM */
static char *_aabc7c0a81d4937d19dcce9bef867d23Ai57OOzflpSDf9F[] = {
/* columns rows colors chars-per-pixel */
"40 40 244 2 ",
"   c #000C00",
".  c #001400",
"X  c #011C01",
"o  c #101D00",
"O  c #012401",
"+  c #012B01",
"@  c #0A270E",
"#  c #052B0A",
"$  c #0B2808",
"%  c #023301",
"&  c #033A00",
"*  c #093D03",
"=  c #0B3B0C",
"-  c #093609",
";  c #133A0B",
":  c #0A3912",
">  c #163817",
",  c #152E10",
"<  c #193F20",
"1  c #044103",
"2  c #0B4707",
"3  c #13450E",
"4  c #124D0C",
"5  c #174A07",
"6  c #0B5507",
"7  c #15570B",
"8  c #0D4812",
"9  c #144414",
"0  c #134C13",
"q  c #14421B",
"w  c #1B4B1B",
"e  c #184616",
"r  c #0E5411",
"t  c #195314",
"y  c #145A15",
"u  c #1A5B14",
"i  c #15531B",
"p  c #1C531B",
"a  c #1D5B1D",
"s  c #145715",
"d  c #215809",
"f  c #224C1C",
"g  c #215A1B",
"h  c #32431F",
"j  c #1A670B",
"k  c #1D641D",
"l  c #196516",
"z  c #0E6111",
"x  c #256A1B",
"c  c #2D711E",
"v  c #36701E",
"b  c #1B4923",
"n  c #1C5623",
"m  c #254A26",
"M  c #235324",
"N  c #235B24",
"B  c #2C5F24",
"V  c #24522B",
"C  c #2B542C",
"Z  c #2C5E2B",
"A  c #235B2B",
"S  c #315A2A",
"D  c #2C5C32",
"F  c #2E5838",
"G  c #355A38",
"H  c #314C2D",
"J  c #1E7225",
"K  c #1F6026",
"L  c #246223",
"P  c #236C23",
"I  c #26642A",
"U  c #2C642D",
"Y  c #2C6B2C",
"T  c #296826",
"R  c #336B2D",
"E  c #33642A",
"W  c #2A7728",
"Q  c #34782A",
"!  c #2C6833",
"~  c #326333",
"^  c #326C32",
"/  c #3A6B36",
"(  c #346D3A",
")  c #3B6C3A",
"_  c #376436",
"`  c #2E7231",
"'  c #2F743D",
"]  c #347234",
"[  c #3C7C34",
"{  c #3B743A",
"}  c #397939",
"|  c #40753C",
" . c #47793D",
".. c #466B34",
"X. c #365E42",
"o. c #3A6943",
"O. c #3C7746",
"+. c #446D46",
"@. c #447C43",
"#. c #477848",
"$. c #477B56",
"%. c #557951",
"&. c #6F7D5C",
"*. c #487F62",
"=. c #338D17",
"-. c #2F8825",
";. c #378628",
":. c #368334",
">. c #3C823C",
",. c #3A8639",
"<. c #3C943A",
"1. c #3FA42E",
"2. c #48B41E",
"3. c #43882C",
"4. c #43833B",
"5. c #448B3D",
"6. c #428A34",
"7. c #459335",
"8. c #49983A",
"9. c #4F9635",
"0. c #4BA53C",
"q. c #55A93A",
"w. c #54B437",
"e. c #53B42A",
"r. c #60BE2A",
"t. c #60C21D",
"y. c #5CC22D",
"u. c #61C338",
"i. c #3A8647",
"p. c #3A9341",
"a. c #438344",
"s. c #4B8445",
"d. c #458B44",
"f. c #4B8A44",
"g. c #45864B",
"h. c #4C844B",
"j. c #4C8C4C",
"k. c #438A4B",
"l. c #528848",
"z. c #4C9944",
"x. c #4C944A",
"c. c #489546",
"v. c #559848",
"b. c #4C8656",
"n. c #558959",
"m. c #4D9353",
"M. c #4C9659",
"N. c #529454",
"B. c #5A9C55",
"V. c #53945B",
"C. c #5C965D",
"Z. c #5D9C5C",
"A. c #589859",
"S. c #629958",
"D. c #638958",
"F. c #4CA345",
"G. c #5AAD4C",
"H. c #58A547",
"J. c #5CB54A",
"K. c #4FA457",
"L. c #5DA45B",
"P. c #5AA756",
"I. c #5DB054",
"U. c #61A644",
"Y. c #61B648",
"T. c #62AB53",
"R. c #63AC5C",
"E. c #68A65B",
"W. c #71AA5D",
"Q. c #64B45B",
"!. c #6BBB5B",
"~. c #68B657",
"^. c #74B25F",
"/. c #4D8663",
"(. c #5B8C66",
"). c #569362",
"_. c #5B9D63",
"`. c #5B9568",
"'. c #599272",
"]. c #4B9B62",
"[. c #658B6B",
"{. c #669967",
"}. c #679B77",
"|. c #729771",
" X c #5DA363",
".X c #5BA667",
"XX c #59B261",
"oX c #5AA272",
"OX c #61A364",
"+X c #63A36C",
"@X c #68AA67",
"#X c #73AC6C",
"$X c #63B364",
"%X c #6CB366",
"&X c #6BB868",
"*X c #76B869",
"=X c #6CAC73",
"-X c #69A677",
";X c #74AC75",
":X c #6DB677",
">X c #74B473",
",X c #75BC73",
"<X c #73B47B",
"1X c #79B978",
"2X c #70CB4E",
"3X c #78C668",
"4X c #79C477",
"5X c #6FC266",
"6X c #84BB79",
"7X c #83CD72",
"8X c #86C87A",
"9X c #8AD77C",
"0X c #8DD174",
"qX c #6CAA84",
"wX c #77A987",
"eX c #6BB287",
"rX c #75B382",
"tX c #7CB48C",
"yX c #79B884",
"uX c #79BA94",
"iX c #7DC186",
"pX c #86BA88",
"aX c #88BA94",
"sX c #94BE9D",
"dX c #8CB290",
"fX c #97BEA3",
"gX c #84C283",
"hX c #8CC683",
"jX c #8BCA83",
"kX c #86C889",
"lX c #92C98A",
"zX c #8AD387",
"xX c #96D68A",
"cX c #89C695",
"vX c #97C598",
"bX c #99D697",
"nX c #8FD493",
"mX c #A3D49E",
"MX c #A1CB9B",
"NX c #A5E599",
"BX c #98C7A7",
"VX c #8FC9A3",
"CX c #A8DEA6",
"ZX c #B4EAB0",
/* pixels */
"t.r.w.j 4 % Q 9.2X9X!.x.cXV.j 8.@X5 % * Q I.G.~.7.;.T.I.x.,.] 2 a s 8 1 r a.t R ",
"t.e.=.w.7.E.U.~.~.9.zX3X:XL.j H. .R 5 8X&XG.F.-.6 j W P.L.L.B.N.a.a.N.g.f.4.hX%X",
"2.y.2Xu.w.w.~.U.d 3.3X<.XXK.-.F.&X8X7X7XG.<.z z 6 y r y } W d.>.5.x.5.:.5.zX^.c ",
"r.2Xu.u.2.2X2X..Q 9XI.8.XXp.<.XXzX9X7X3.0.G.<.l ` ` P y 6 l z.:.Q.v.*X3XzX7X8.~.",
"J.=.J.1.u.J.7X%X0X*X7.,..X<.&XzXjXjXB.7 8.*XG.F.-.Q W J :.c.p.d.z.T.7.3X5XJ.J.J.",
"j w.0.0.I.G.NX>X^.v 7 & =XM.iXkXjX@X5 T f.z.!.T.9.;.P.H.XXK.W I.3.3X-.H.J.F.0.F.",
"e.w.=.8.3.W.xX6X .5 t g.eXeXnX$X*X4 % 2 u * 5 v.v.c ..3XH.c.c.:.3XH.0.5X0.q.-.=.",
"w.w.w.Y.v 0X6X..O + & `.iXiXg.} a.% a u L x 0 2 * * & { v.Q $X6 & 7 7.7.6 j G.J.",
"~.0.2Xj 9.7X..X X n ' oXeXeX@.% r n r k k l s s 9 - & - +.& D.2 B.x 4.2 j j x l ",
"Q.Q.~.P.T. .O . : O.i.].oX;X& & n i.y l P u u Y n i 9 - 9 ; S B *Xl.x t L k u k ",
"G.I.v.T.W.; . > Z ' i.p.} g.7 [ :.:.W J J W c 7 T 0 n * f R v.lX1X] 2 & 2 R ] L ",
"$XT.@XA.%.O . q @.] :.} { w R [ j.<.,.J ` P 6 x l x t 4  .S.v.8X} n 8 Y N U {.C.",
";.9.lX..h   X n :.c 5 ..#.= X O - Y m.c.z.z.Q <.-.7.~.W.9XE.g OXI I K { / / ;XCX",
"q.*XS o     + s 7.H.W. ._ Z = - - 8 K d.c x x H.7.3X7X9XS.2 0 } I ` K ] Y w |.E ",
"*X7XS ;   . Q 9.q.q.7X9.h.{ x 7 4 p a k a u 7 P.,.d.<Xj.~ = N n Y k } Y t e %.O ",
"8X .g B E 4.U.U.U.7X9.5 E ) } 4.{ t ] k Q 4.t Y A.O.b _ C + 9 U L L I ] s. .#.#X",
"#XA.%X*X9.;.~.3.W.e O $ m m = g s.5.f.T 2 P.4.s.C.D b _ F e 9 Z D e ~ | M & g lX",
"wXlXjX;.J.3XH.S._ . @ X @ > = ~ T 1 Q z.B.:.f.] b.I 8 I ! 8 ] E * % 9 l.g + [ jX",
"gXhXL.Q Q.W.E.S.S H > @ O : 5 4.6 7 T.I.T.T.v.8.,.Q >.,.d.d.[ x % 1 ] OXB.j.4.T.",
"gXjXOX3X,XE.;X{.m X $ # O | 9.#XQ.7 x ;.7.;.6.Q $X&X$XP.<.d.:.%XL.Z.#XbXE.Q [ R ",
"$XP.&XzX4Xi.pX_ X @ > > D.6X*XU.L R l.l.E.^.6X3X3X3X&X,X,X4XP.,XgXs.>X .h. .@.B ",
"K.XX4X4Xm.m.;Xs.o.+ X -  .pX6XB 3 e 6X6XlX0X0X#X#X*XbXnXbXnX>XE.R R | % O 9 ; = ",
"k.XX.X:XP.@XZ.L b.b.+ . f pX#.O f sXMXlXMX6X#X6XbXbXlXpX{.U n & 0 0 @.V Z 9 D q ",
",X4X&XP.M.p.r @XOXV.OXI 8 {.% N pXmXMXMXCXMXZXmXCXpXh.] 0 ! 2 n N ( N ( ) ~ G C ",
"N L ] N.s.} T .Xi.>.k.=X' V.oXcX6XjXxXbXnXCXbXnXbX=X` g.s s I Y ` g.h.`.9 [.<   ",
"M #.) O.s.N.d.N.M.,X XM.:XM.].:X&X$X3XzXkXnXiXbXyXOX+Xi.} ] k.a.g..Xn #.% n.    ",
"V ~ M U @.#.p {.h.Z.@X:X4X].K.XXI.G.4X5XiXiX+XM.+X.X' V.M.I N.k.! b.qX: F V O # ",
". + % b O.! { `.{.o.;X{ & W K.F.F.!.zXzX$Xp.i.M. XrX.X XV.} gXyX'.O.*.*.+.o.X.X.",
"> D A ) n U /.(.+.m $.. O N.c.z.%XxX4Xc.V.m.<XV.oXyX).-Xb.).( ).qX*.qX/.'.*.*.*.",
"X.O X + 8 n #.$.%.G O X / v.c.W *XzXx.` O.g.:XoXyX<XiXcXpXcXqXO.*.wXqXqX*.[.qX$.",
"o   . $ 3 p ) o.V . X C {.S.Q B.xX@XZ.OX`.g.<X=X<XN.O.i qXtXtXuX'.[.[.qXo.$.*.*.",
"D.H [.D.| h.@.p : b : %.{.1Xa 1XnXN ^ OXg.V.+X( =X+X_.{.}.*.}.wXdXX.+.}.%.dXdX$.",
", dX6Xh f ; * + 3 O.n.>XgXA.Y jXlXO % L i ! 9 ).aXaX<X).qXVXdXX.(.(.aX}.[.fXdX&.",
"..f C h ; + O f s.@.=X>XgX2 } pX{.A U Y ^ @.b.$.O.[.}.rXcX`.qXwXBXaXBXdXwXfXwXX.",
"e * f ; > + e [.e w yX^ ;X2 t hX~ B I a. XV.-XdXtXuXrXb.`.-XsXBXVX'.wXqX}.fXfXV ",
"I U R / f ; .. .O M n.9 (.~ A #./ O.s.B.j.=XyXtXwX'.O.O.cX}.dX$.cXqXeX/.'.fX[.@ ",
"kXS.@.S.f S H ; m D $.: M o.M w / ^ 4 } >._.rXrXV.}.rXb.cXrXdXBXtXoXeXaXO.fX[.< ",
"@XgXn.* . $ $ X , H H > C > G V / n.#X>X1X:Xg.).b.<XkX=X(.vX[.|./.tXwXtX< }.b @ ",
"j.OX@XO X , >   . X $ , F # o.q /  . .P.L.m..XM.<XiXiXyXn aX[.G V aXaX#.O F .   ",
"i.+  ./ S H ,     o @ @ X.> o.b = w L.@XK.$X.X:XcXiXM.yXN #.dXX O }.sX# X H %.X."
};
