/* XPM */
static char * man_xpm[] = {
"40 40 204 2",
"  	c #FFFFFF",
". 	c #928D89",
"+ 	c #574E45",
"@ 	c #4A4133",
"# 	c #716B64",
"$ 	c #97938E",
"% 	c #4A4134",
"& 	c #4B4033",
"* 	c #55483B",
"= 	c #504437",
"- 	c #908D88",
"; 	c #9C9997",
"> 	c #92775D",
", 	c #C8A27D",
"' 	c #D5AD86",
") 	c #BD9A79",
"! 	c #87827D",
"~ 	c #ACA096",
"{ 	c #E2D6CF",
"] 	c #B0A7A0",
"^ 	c #B09071",
"/ 	c #BB9876",
"( 	c #D5AA86",
"_ 	c #BD9977",
": 	c #C1A287",
"< 	c #836B53",
"[ 	c #745C42",
"} 	c #7E6854",
"| 	c #927C67",
"1 	c #BA916F",
"2 	c #D0A37E",
"3 	c #D8AE88",
"4 	c #CFA882",
"5 	c #C49578",
"6 	c #CBA57F",
"7 	c #CFAC8F",
"8 	c #EDEBE9",
"9 	c #876A4F",
"0 	c #9C7B5D",
"a 	c #A58567",
"b 	c #C7A07D",
"c 	c #B68F6F",
"d 	c #CEA681",
"e 	c #6A553F",
"f 	c #B4967A",
"g 	c #D2A681",
"h 	c #C4AE99",
"i 	c #D4CEC6",
"j 	c #9D7E61",
"k 	c #A08C7A",
"l 	c #83857A",
"m 	c #9B9189",
"n 	c #9F958C",
"o 	c #948C82",
"p 	c #9C816E",
"q 	c #9D826C",
"r 	c #C89D79",
"s 	c #A38E7D",
"t 	c #C9B9B2",
"u 	c #E3D7CC",
"v 	c #CA9D78",
"w 	c #D2B298",
"x 	c #7FABA7",
"y 	c #2E595B",
"z 	c #2E585A",
"A 	c #2D585B",
"B 	c #866B5C",
"C 	c #996E59",
"D 	c #60726E",
"E 	c #9A6E58",
"F 	c #846B5E",
"G 	c #375D5F",
"H 	c #778C8C",
"I 	c #DECBBE",
"J 	c #D2BEAD",
"K 	c #6DA19F",
"L 	c #2D5759",
"M 	c #395E60",
"N 	c #4D6E71",
"O 	c #746B61",
"P 	c #A67055",
"Q 	c #35666B",
"R 	c #A77054",
"S 	c #726B61",
"T 	c #315D62",
"U 	c #31585B",
"V 	c #8E9D9E",
"W 	c #747876",
"X 	c #A98579",
"Y 	c #8A6C5F",
"Z 	c #AC877A",
"` 	c #6D7575",
" .	c #59787B",
"..	c #386363",
"+.	c #649594",
"@.	c #B9724F",
"#.	c #C16D43",
"$.	c #BE6C43",
"%.	c #C06C43",
"&.	c #B9724E",
"*.	c #C7B5AB",
"=.	c #7EA7A3",
"-.	c #AAA28E",
";.	c #DFC6BC",
">.	c #C97447",
",.	c #B8663F",
"'.	c #B4623D",
").	c #B6643F",
"!.	c #C87447",
"~.	c #D09477",
"{.	c #C99E7A",
"].	c #D7BEAA",
"^.	c #DFC6BB",
"/.	c #C47144",
"(.	c #C16E44",
"_.	c #C37046",
":.	c #CFAA8D",
"<.	c #CDA789",
"[.	c #B19388",
"}.	c #A96445",
"|.	c #B26A45",
"1.	c #B18575",
"2.	c #AE735C",
"3.	c #AA6645",
"4.	c #A78071",
"5.	c #C89E78",
"6.	c #BA6C45",
"7.	c #B26945",
"8.	c #B08677",
"9.	c #B96C45",
"0.	c #D5B1A2",
"a.	c #CAA07E",
"b.	c #D1AD91",
"c.	c #B9663F",
"d.	c #C77447",
"e.	c #C87446",
"f.	c #B9673F",
"g.	c #D3AD9E",
"h.	c #CEA889",
"i.	c #CEAA8D",
"j.	c #D6B1A1",
"k.	c #BE6B41",
"l.	c #D09D87",
"m.	c #CCA483",
"n.	c #CCA484",
"o.	c #DBB8AA",
"p.	c #C97446",
"q.	c #D59F86",
"r.	c #C8754B",
"s.	c #D08E6E",
"t.	c #D3B59E",
"u.	c #D2B59D",
"v.	c #DCB7AA",
"w.	c #C77548",
"x.	c #CA7F58",
"y.	c #CE8A68",
"z.	c #D19578",
"A.	c #C6764A",
"B.	c #CC8463",
"C.	c #D6A591",
"D.	c #D09A7F",
"E.	c #C77B52",
"F.	c #CE8C6D",
"G.	c #D6A490",
"H.	c #D5AB98",
"I.	c #CA815B",
"J.	c #CF8E70",
"K.	c #D5A48F",
"L.	c #DDBFB2",
"M.	c #CB845F",
"N.	c #CC8766",
"O.	c #CF9274",
"P.	c #E1C7BD",
"Q.	c #CB825D",
"R.	c #CC8665",
"S.	c #D1987B",
"T.	c #C87D55",
"U.	c #CD8A6B",
"V.	c #DBB5A7",
"W.	c #C6774E",
"X.	c #CF8769",
"Y.	c #CE8768",
"Z.	c #E5CBC0",
"`.	c #CE896B",
" +	c #CE8766",
".+	c #E3CEC7",
"++	c #A8755E",
"@+	c #9A644B",
"#+	c #9C654C",
"$+	c #AB7A66",
"%+	c #BBB3AE",
"&+	c #745B4D",
"*+	c #5A3A25",
"=+	c #593317",
"-+	c #5B3B27",
";+	c #725849",
">+	c #7C695E",
",+	c #5B3418",
"'+	c #694A31",
")+	c #7C6147",
"!+	c #8D7A6B",
"~+	c #70533F",
"{+	c #5A3417",
"]+	c #897971",
"                                                                                ",
"                                                                                ",
"                                                                                ",
"                                                                                ",
"                                      . + @ #                                   ",
"                                    $ % & * = -                                 ",
"                                    ; > , ' ) !                                 ",
"                          ~       { ] ^ / ( _ :                                 ",
"                          < [ } | 1 2 3 4 5 6 7 8                               ",
"                          < [ [ [ 9 0 a b c d                                   ",
"                          < [ [ [ [ [ e f g h                                   ",
"                        i j k l m n o p q r s t                                 ",
"                        u v w x y z A B C D E F G H                             ",
"                          I J K L M N O P Q R S T U V                           ",
"                                      W X Y Z `  ...+.                          ",
"                                      @.#.$.%.&.*.=.-.                          ",
"                                    ;.>.,.'.).!.~.  {.].                        ",
"                                    ^.>./.(._.>.~.  :.<.                        ",
"                                    [.}.|.1.2.3.4.  ].5.                        ",
"                                      6.7.8.2.9.0.    a.b.                      ",
"                                      c.d.>.e.f.g.    h.i.                      ",
"                                    j.k.!.e.e.$.l.    m.n.                      ",
"                                    o.p.e.q.r.p.s.    t.u.                      ",
"                                    v.e.w.  x.e.y.                              ",
"                                    z.!.A.  B.e.C.                              ",
"                                    D.p.E.  F.e.G.                              ",
"                                    H.p.I.  J.e.K.                              ",
"                                    L.>.M.  N.e.O.                              ",
"                                    P.>.Q.  R.p.S.                              ",
"                                      p.T.  U.p.V.                              ",
"                                      !.W.  R.p.;.                              ",
"                                      X.Y.Z.`. +.+                              ",
"                                      ++@+  #+$+                                ",
"                                  %+&+*+=+  =+-+;+                              ",
"                                  >+,+'+)+  !+~+{+]+                            ",
"                                                                                ",
"                                                                                ",
"                                                                                ",
"                                                                                ",
"                                                                                "};
